<?xml version="1.0"?>
<!-- Generator: Adobe Illustrator 23.0.0, SVG Export Plug-In . SVG Version: 6.00 Build 0)  -->
<svg version="1.1" id="Layer_1" xmlns="http://www.w3.org/2000/svg" xmlns:xlink="http://www.w3.org/1999/xlink" x="0px" y="0px"
	 viewBox="0 0 171 34" style="enable-background:new 0 0 171 34;" xml:space="preserve">
<style type="text/css">
	.st0{fill:#494E51;}
	.st1{fill:#B2E522;}
	.st2{enable-background:new    ;}
	.st3{fill:#57B228;}
</style>
<g transform="">
	<g>
		<path class="st0" d="M108.3,8.6c0-0.9,0.7-1.7,1.7-1.7s1.7,0.8,1.7,1.7s-0.7,1.7-1.7,1.7S108.3,9.5,108.3,8.6"/>
		<path class="st0" d="M111.2,12.2c0.1,0,0.1,0.1,0.1,0.1v10.9c0,0.1-0.1,0.1-0.1,0.1h-2.4c-0.1,0-0.1-0.1-0.1-0.1V12.4
			c0-0.1,0.1-0.1,0.1-0.1h2.4V12.2z"/>
		<path class="st0" d="M24.3,20.7l8.2-11c0,0,0-0.1-0.1-0.1h-7.9c-0.1,0-0.1-0.1-0.1-0.1V7.1C24.4,7,24.5,7,24.5,7h11.7
			c0.1,0,0.1,0.1,0.1,0.1v2.5v0.1l-8.2,11c0,0,0,0.1,0.1,0.1h8.1c0.1,0,0.1,0.1,0.1,0.1v2.4c0,0.1-0.1,0.1-0.1,0.1H24.4
			c-0.1,0-0.1-0.1-0.1-0.1v-2.5V20.7z"/>
		<path class="st0" d="M60.6,13.9c2,0,3.4-0.5,3.4-2.3c0-1.5-1-2.2-3.3-2.2h-2.3c0,0-0.1,0-0.1,0.1v4.3c0,0,0,0.1,0.1,0.1L60.6,13.9
			z M55.5,7.1C55.5,7,55.6,7,55.5,7.1l5-0.1c4.5,0,6.2,1.7,6.2,4.7c0,3.1-2.1,4.4-3.5,4.5c0,0-0.1,0,0,0.1l4,7c0,0.1,0,0.2-0.1,0.2
			H64c-0.1,0-0.1,0-0.1-0.1l-3.5-6.8l-0.1-0.1h-1.9c0,0-0.1,0-0.1,0.1v6.8c0,0.1-0.1,0.1-0.1,0.1h-2.5c-0.1,0-0.1-0.1-0.1-0.1V7.1
			L55.5,7.1z"/>
		<path class="st0" d="M86.6,15.5c-0.1,0.1-0.1,0.1-0.2,0c-0.3-0.3-1-1-2.1-1c-1.2,0-2.9,0.8-2.9,3.4s1.9,3.4,3,3.4
			c1,0,1.8-0.6,2-0.9c0.1-0.1,0.1-0.1,0.2,0l1.6,1.8v0.2c-0.8,0.7-2,1.5-3.7,1.5c-2.7,0-5.7-1.8-5.7-5.9c0-3.9,2.9-5.9,5.7-5.9
			c1.6,0,2.8,0.7,3.7,1.6c0.1,0.1,0.1,0.1,0,0.2L86.6,15.5z"/>
		<path class="st0" d="M75.1,16.7c0.1-1.4-1.1-2.7-2.5-2.7s-2.6,0.9-2.8,2.6c0,0,0,0.1,0.1,0.1H75.1z M69.8,18.8
			c0.1,1.3,1.4,2.7,2.8,2.7s2.1-0.6,2.8-1.4c0-0.1,0.1-0.1,0.2,0l1.7,1.3c0.1,0,0.1,0.1,0,0.2c-1.1,1.3-2.4,2.1-4.4,2.1
			c-3,0-5.7-2.2-5.7-5.9c0-3.5,2.5-5.9,5.6-5.9c2.9,0,5.1,2.5,5.1,6.1v0.6c0,0.1-0.1,0.1-0.1,0.1L69.8,18.8L69.8,18.8z"/>
		<path class="st0" d="M129,16.7C129.1,16.7,129.1,16.7,129,16.7c0.1-1.4-1.1-2.7-2.5-2.7s-2.6,0.9-2.8,2.6c0,0,0,0.1,0.1,0.1H129z
			 M123.8,18.8c0.1,1.3,1.4,2.7,2.8,2.7c1.4,0,2.1-0.6,2.8-1.4c0-0.1,0.1-0.1,0.2,0l1.7,1.3c0.1,0,0.1,0.1,0,0.2
			c-1.1,1.3-2.4,2.1-4.4,2.1c-3,0-5.7-2.2-5.7-5.9c0-3.5,2.5-5.9,5.6-5.9c2.9,0,5.1,2.5,5.1,6.1v0.6c0,0.1-0.1,0.1-0.1,0.1
			L123.8,18.8L123.8,18.8z"/>
		<path class="st0" d="M89.7,12.2h2.1c0.1,0,0.1,0,0.1,0.1l0.3,1.7c1.1-2.3,3.7-2,4-1.9c0.1,0,0.1,0.1,0.1,0.2v2.2
			c0,0.1-0.1,0.1-0.1,0.1s-0.5-0.1-0.9-0.1c-1.7,0-2.9,1.6-3,3.8v5c0,0.1-0.1,0.1-0.1,0.1h-2.4c-0.1,0-0.1-0.1-0.1-0.1V12.4
			C89.6,12.3,89.7,12.2,89.7,12.2"/>
		<path class="st0" d="M133.2,12.2h2.1c0.1,0,0.1,0,0.1,0.1l0.3,1.7c1.1-2.3,3.7-2,4-1.9c0.1,0,0.1,0.1,0.1,0.2v2.2
			c0,0.1-0.1,0.1-0.1,0.1s-0.5-0.1-0.9-0.1c-1.7,0-2.9,1.6-3,3.8v5c0,0.1-0.1,0.1-0.1,0.1h-2.4c-0.1,0-0.1-0.1-0.1-0.1V12.4
			C133.1,12.3,133.2,12.2,133.2,12.2"/>
		<path class="st0" d="M112.7,14.5v-2.1c0-0.1,0.1-0.1,0.1-0.1h2c0,0,0.1,0,0.1-0.1v-2c0-0.1,0-0.1,0.1-0.1l2.4-0.9
			c0.1,0,0.2,0,0.2,0.1v3c0,0,0,0.1,0.1,0.1h2.7c0.1,0,0.1,0.1,0.1,0.1v2.1c0,0.1-0.1,0.1-0.1,0.1h-2.7c0,0-0.1,0-0.1,0.1v4.8
			c0,1,0.2,1.8,1.5,1.8c0.5,0,1-0.1,1.3-0.3c0.1,0,0.1,0,0.1,0.1v2.1c0,0.1,0,0.1-0.1,0.2c-0.4,0.2-1.2,0.3-2,0.3
			c-1.3,0-2.1-0.3-2.6-0.8s-0.8-1.2-0.8-3.2v-5.1c0,0,0-0.1-0.1-0.1h-2C112.7,14.6,112.7,14.6,112.7,14.5"/>
		<path class="st0" d="M102.1,21.3c-1.1,0-1.9-0.7-2-1.9v-7c0-0.1-0.1-0.1-0.1-0.1h-2.4c-0.1,0-0.1,0.1-0.1,0.1V19
			c0,2.7,1.9,4.7,4.6,4.7h0.1c2.7,0,4.6-2,4.6-4.7v-6.6c0-0.1-0.1-0.1-0.1-0.1h-2.4c-0.1,0-0.1,0.1-0.1,0.1v7
			C104,20.6,103.1,21.3,102.1,21.3z"/>
		<path class="st0" d="M48.7,21.2c-1.7,0-3.1-1.2-3.1-3.4c0-2.1,1.4-3.4,3.1-3.4c1,0,2.8,0.7,2.8,3.4C51.6,20.5,49.7,21.2,48.7,21.2
			z M45.4,22.1C45.4,22,45.5,22,45.4,22.1c0.8,0.9,2.1,1.6,3.6,1.6c2.6,0,5.1-2.1,5.1-5.9c0-4-2.5-5.9-5.2-5.9
			c-1.7,0-2.9,0.9-3.6,1.9h-0.1L45,12.4c0-0.1-0.1-0.1-0.1-0.1H43c-0.1,0-0.1,0.1-0.1,0.1v16.2c0,0.1,0.1,0.1,0.1,0.1h2.4
			c0.1,0,0.1-0.1,0.1-0.1L45.4,22.1L45.4,22.1z"/>
		<path class="st0" d="M37.7,8.6c0-0.9,0.7-1.7,1.7-1.7s1.7,0.8,1.7,1.7s-0.7,1.7-1.7,1.7S37.7,9.5,37.7,8.6"/>
		<path class="st0" d="M40.6,12.2c0.1,0,0.1,0.1,0.1,0.1v10.9c0,0.1-0.1,0.1-0.1,0.1h-2.4c-0.1,0-0.1-0.1-0.1-0.1V12.4
			c0-0.1,0.1-0.1,0.1-0.1h2.4V12.2z"/>
	</g>
	<path class="st1" d="M17.1,17.8l-1.4-1.1v-5.8c0,0,0-0.1,0.1-0.1l1.2-0.4c0.2,0,0.2,0.3,0.2,0.6L17.1,17.8z M2.6,16.7l-1.4,1.1H1.1
		V11c0-0.3,0-0.6,0.2-0.6l1.2,0.4l0.1,0.1V16.7z M17.3,9.2c-0.2-0.1-0.4,0-0.7,0l-0.9,0.3V0.8C15.7,0.4,15.4,0,15,0H9.2H3.4
		C2.9,0,2.6,0.4,2.6,0.8v8.7L1.7,9.2C1.5,9.1,1.3,9.1,1,9.2S0,9.6,0,11v7.1v0.1c0.1,0.6,0.5,1.3,1.4,1.3h2.9c0.3,0.4,1,1,2.4,1.1
		c0,1.1,0.6,2,1.5,2.4v2c0,0,0,0.1-0.1,0.1c-4.1,0.2-6.7,1.6-7.5,2C0.1,27.4,0,27.9,0,28.3V30c0,0.6,0.5,1,1,1c0.6,0,1-0.5,1-1
		s-0.3-0.9-0.7-1.1c0,0,0,0,0-0.1v-0.6c0-0.2,0.1-0.3,0.2-0.4c1.1-0.7,3.9-1,6.1-1.1h0.6c0,0,0.1,0,0.1,0.1c0.1,1.8,0.3,3.4,0.3,4.4
		H8.5c-0.4,0-0.7,0.5-0.7,1c0,0.6,0.3,1,0.7,1h0.7h0.7c0.4,0,0.7-0.5,0.7-1c0-0.6-0.3-1-0.7-1H9.8c0,0,0.2-2.5,0.3-4.4
		c0,0,0-0.1,0.1-0.1h0.6c2.1,0.1,5,0.4,6.1,1.1c0.1,0.1,0.2,0.2,0.2,0.4v0.6v0.1c-0.4,0.1-0.8,0.6-0.7,1.1c0,0.5,0.4,1,0.9,1
		s1-0.4,1-1v-1.6c0-0.4-0.1-0.9-0.6-1.2c-0.8-0.5-3.4-1.8-7.5-2c0,0-0.1,0-0.1-0.1v-2c0.9-0.4,1.5-1.3,1.5-2.4
		c1.3-0.1,2.1-0.8,2.4-1.1h2.9c0.9,0,1.3-0.7,1.4-1.3c0-0.1,0-0.1,0-0.1V11C18.3,9.6,17.6,9.3,17.3,9.2z"/>
	<path class="st0" d="M140.3,10.6c0,0.2,0,0.4,0.1,0.5c0.1,0.2,0.2,0.3,0.3,0.4s0.3,0.2,0.4,0.3c0.2,0.1,0.3,0.1,0.5,0.1
		s0.3,0,0.5-0.1s0.3-0.2,0.4-0.3s0.2-0.3,0.3-0.4c0.1-0.2,0.1-0.3,0.1-0.5s0-0.4-0.1-0.5c-0.1-0.2-0.2-0.3-0.3-0.4s-0.3-0.2-0.4-0.3
		c-0.2-0.1-0.3-0.1-0.5-0.1s-0.3,0-0.5,0.1s-0.3,0.2-0.4,0.3s-0.2,0.3-0.3,0.4C140.4,10.3,140.3,10.4,140.3,10.6 M140.1,10.6
		c0-0.2,0-0.4,0.1-0.7c0.1-0.2,0.2-0.4,0.3-0.5c0.1-0.2,0.3-0.3,0.5-0.4s0.4-0.1,0.6-0.1s0.4,0,0.6,0.1s0.4,0.2,0.5,0.4
		s0.3,0.3,0.3,0.5c0.1,0.2,0.1,0.4,0.1,0.7s0,0.4-0.1,0.7s-0.2,0.4-0.3,0.5c-0.1,0.2-0.3,0.3-0.5,0.4s-0.4,0.1-0.6,0.1
		s-0.4,0-0.6-0.1s-0.4-0.2-0.5-0.4s-0.3-0.3-0.3-0.5C140.1,11.1,140.1,10.9,140.1,10.6"/>
	<path class="st0" d="M141.6,10.5c0.2,0,0.4-0.1,0.4-0.3s-0.1-0.3-0.4-0.3h-0.3v0.5h0.3V10.5z M141,9.7h0.6c0.5,0,0.7,0.2,0.7,0.5
		c0,0.4-0.2,0.5-0.4,0.5l0.5,0.8H142l-0.4-0.8h-0.2v0.8H141L141,9.7z"/>
	<g class="st2">
		<path class="st3" d="M145,23v-9.9h3.9c1.7,0,2.8,1,2.8,2.5c0,1-0.8,2-1.7,2.2v0.1c1.3,0.2,2.2,1.1,2.2,2.4c0,1.7-1.2,2.8-3.3,2.8
			H145V23z M146.2,17.4h2c1.5,0,2.2-0.6,2.2-1.6s-0.7-1.5-1.9-1.5h-2.4L146.2,17.4L146.2,17.4z M148.6,21.9c1.5,0,2.3-0.6,2.3-1.7
			s-0.8-1.7-2.4-1.7h-2.3V22L148.6,21.9L148.6,21.9z"/>
		<path class="st3" d="M153.5,12.7h1.2V23h-1.2V12.7z"/>
		<path class="st3" d="M156,19.3c0-2.3,1.3-3.8,3.4-3.8s3.4,1.5,3.4,3.8s-1.3,3.8-3.4,3.8S156,21.6,156,19.3z M161.6,19.3
			c0-1.7-0.8-2.7-2.2-2.7s-2.2,1-2.2,2.7s0.8,2.7,2.2,2.7C160.7,22,161.6,21,161.6,19.3z"/>
		<path class="st3" d="M163.9,23.6h1.2c0.2,0.7,1,1.1,1.9,1.1c1.3,0,2.1-0.7,2.1-1.9v-1.2c-0.5,0.8-1.3,1.3-2.4,1.3
			c-1.9,0-3.1-1.5-3.1-3.7s1.3-3.7,3.1-3.7c1,0,1.9,0.5,2.4,1.3v-1.2h1.1v7.2c0,1.8-1.3,2.9-3.3,2.9
			C165.4,25.8,164.2,24.9,163.9,23.6z M169.2,19.3c0-1.6-0.9-2.7-2.2-2.7s-2.1,1.1-2.1,2.7s0.8,2.7,2.1,2.7
			C168.3,21.9,169.2,20.9,169.2,19.3z"/>
	</g>
</g>
</svg>
